<svg id="Capa_1" data-name="Capa 1" xmlns="http://www.w3.org/2000/svg" viewBox="0 0 50 50"><defs><style>.cls-1{fill:#ffdf9f;}</style></defs><title>CashFavicon</title><path class="cls-1" d="M49.32,25.55a21.84,21.84,0,0,1-3.18,4.16c-1.85,2.27-3.77,4.49-5.63,6.76a8.28,8.28,0,0,1-6.64,3.12c-4.11,0-8.21,0-12.32,0a4.12,4.12,0,0,0-3.14,1.68c-.07.07-.06.23,0,.34a3,3,0,0,1-.9,2.86c-1.44,1.4-2.87,2.82-4.31,4.23a4.82,4.82,0,0,1-.55.44H12c-.28-.25-.58-.48-.84-.75q-5-5-10-10.08c-.67-.67-.67-1.12,0-1.78,1.38-1.39,2.77-2.78,4.15-4.18a3.11,3.11,0,0,1,2.43-1,.56.56,0,0,0,.43-.23c3.16-5.54,10.07-6.9,15-5a2.07,2.07,0,0,0,.78.14c3.25,0,6.5,0,9.75,0a4.23,4.23,0,0,1,3.51,1.56,1.58,1.58,0,0,1,.22-.47l5.3-5.46a3.79,3.79,0,0,1,6.47,1.27,1,1,0,0,0,.08.11ZM17.14,39.8a4.67,4.67,0,0,0,.39-.37,5.42,5.42,0,0,1,4.34-1.75c3.94,0,7.89,0,11.84,0a6.5,6.5,0,0,0,5.39-2.51c.83-1,1.7-2,2.56-3.06q2.7-3.22,5.39-6.46a1.9,1.9,0,0,0-2.79-2.58c-2,2.08-4.07,4.18-6.09,6.27a.65.65,0,0,0-.19.41,3.83,3.83,0,0,1-4.21,4.12H26.83a3.57,3.57,0,0,1-.57,0A.93.93,0,0,1,26.33,32a4.43,4.43,0,0,1,.52,0h7a4.16,4.16,0,0,0,.61,0,1.89,1.89,0,0,0,.28-3.69,3.74,3.74,0,0,0-.95-.09H23.71a2.63,2.63,0,0,1-.93-.15,10.81,10.81,0,0,0-6.48-.53A9.4,9.4,0,0,0,9.89,32a.46.46,0,0,0,.1.68c.67.63,1.3,1.29,1.95,1.94Zm-4.59,7c1.21-1.26,2.49-2.58,3.74-3.92a1,1,0,0,0-.15-1.43L8.31,33.66a1,1,0,0,0-1.6,0L4.19,36.19c-.4.39-.82.77-1.28,1.21Z"/><path class="cls-1" d="M29,21.29a10.48,10.48,0,1,1,10.5-10.42A10.45,10.45,0,0,1,29,21.29Zm0-1.9A8.57,8.57,0,1,0,20.5,10.8,8.56,8.56,0,0,0,29.07,19.39Z"/><path class="cls-1" d="M23.37,32.78a1,1,0,0,1-.94.93,1,1,0,0,1-1-1,1,1,0,0,1,1-.92A.93.93,0,0,1,23.37,32.78Z"/><path class="cls-1" d="M27.93,6.18c0-.33,0-.68,0-1a1,1,0,0,1,.93-1,.9.9,0,0,1,.95,1c-.06.74.07,1.27.85,1.53a1.62,1.62,0,0,1,.55.44.92.92,0,0,1,.06,1.32A.94.94,0,0,1,30,8.52a4.67,4.67,0,0,0-.58-.41.92.92,0,0,0-1.14.1.89.89,0,0,0-.29,1,1,1,0,0,0,.94.67,2.86,2.86,0,0,1,1.17,5.45.6.6,0,0,0-.24.38c0,.29,0,.57,0,.86a.92.92,0,0,1-.95.92.87.87,0,0,1-.92-.93A1.35,1.35,0,0,0,27,15a2.51,2.51,0,0,1-.86-.8.9.9,0,0,1,.1-1.28.93.93,0,0,1,1.29,0,5.79,5.79,0,0,0,.64.57,1,1,0,0,0,1.23,0,.86.86,0,0,0,.34-1,1,1,0,0,0-1-.71,2.85,2.85,0,0,1-2.45-4.12A3.29,3.29,0,0,1,27.93,6.18Z"/></svg>