<svg id="Capa_1" data-name="Capa 1" xmlns="http://www.w3.org/2000/svg" viewBox="0 0 66.41 50"><defs><style>.cls-1{fill:#ffdf9f;}</style></defs><title>CreditCardFavicon</title><path class="cls-1" d="M2,8.07A3.73,3.73,0,0,1,4,5.35a5.55,5.55,0,0,1,2.12-.44c7.65,0,15.3,0,23,0H60.19c2.77,0,4.27,1.49,4.27,4.25v34c0,2.76-1.5,4.25-4.27,4.25-17.86,0-35.73,0-53.59,0-2.54,0-4.14-1.06-4.65-3.21ZM4.48,22.4c0,.26,0,.46,0,.66V43.14c0,1.34.41,1.76,1.74,1.76h54c1.34,0,1.75-.41,1.75-1.75V23.07c0-.22,0-.44,0-.67Zm0-7.53H61.92a5.48,5.48,0,0,0,0-.55c0-1.77,0-3.54,0-5.31,0-1.17-.46-1.63-1.63-1.63H6.08c-1.17,0-1.62.46-1.63,1.63,0,1.77,0,3.54,0,5.31C4.45,14.49,4.47,14.67,4.49,14.87Z"/><path class="cls-1" d="M24.41,29.9H35.15a5.94,5.94,0,0,1,.73,0,1.23,1.23,0,0,1,1.06,1.22,1.24,1.24,0,0,1-1.07,1.21,4.15,4.15,0,0,1-.61,0H13.67a3.76,3.76,0,0,1-.67,0,1.22,1.22,0,0,1,0-2.42,5.94,5.94,0,0,1,.73,0Z"/><path class="cls-1" d="M19.41,37.39h-6A1.26,1.26,0,0,1,12,36.3,1.22,1.22,0,0,1,13,35a3.54,3.54,0,0,1,.73,0H25.57a1.24,1.24,0,1,1,0,2.47Z"/></svg>