<svg id="Capa_1" data-name="Capa 1" xmlns="http://www.w3.org/2000/svg" viewBox="0 0 50 50"><defs><style>.cls-1{fill:#ffdf9f;}</style></defs><title>Efectivo</title><path class="cls-1" d="M1.88,16.11,26,6.52l12.69-5c1-.4,1.36-.25,1.76.75l9,22.62a3.59,3.59,0,0,0,.17.34v.57a5.27,5.27,0,0,1-1,.73c-1.72.72-3.45,1.4-5.19,2.07a.65.65,0,0,0-.5.72q0,6.38,0,12.77c0,1.05-.27,1.32-1.33,1.32H1.92C.88,43.36.6,43.08.6,42Q.6,30,.59,18c0-1,.17-1.4,1.29-1.85m.68,2.28v23H41v-23Zm3.93-2c1.82.1,3.61.1,5.39.09a1,1,0,0,0,.42-.15,6.62,6.62,0,0,1,.71-.46l8.6-3.43,11-4.34a.94.94,0,0,1,1.27.32,5.69,5.69,0,0,0,4.82,2.08,1,1,0,0,1,1.15.71c.67,1.62,1.31,3.25,2,4.87a.72.72,0,0,0,.33.41c.65.28.79.45.79,1.18,0,2.82,0,5.65,0,8.47v.59l4.47-1.79c-2.86-7.17-5.7-14.29-8.54-21.43L6.49,16.35m10.41,0,0,.07H39.85c-.48-1.21-1-2.37-1.39-3.54a.67.67,0,0,0-.68-.51,7.27,7.27,0,0,1-4.72-2,.6.6,0,0,0-.75-.12l-12.64,5Z"/><path class="cls-1" d="M21.77,39.51c-3.89,0-7.78,0-11.67,0A1,1,0,0,1,9,38.69,5.68,5.68,0,0,0,5.26,35a1,1,0,0,1-.8-1.06c0-2.67,0-5.35,0-8,0-.67.2-.89.84-1.11A5.66,5.66,0,0,0,9,21.15c.23-.65.47-.84,1.16-.84l10.19,0H33c1.15,0,1.22.07,1.64,1.13a5.68,5.68,0,0,0,3.49,3.37c.72.26.9.46.9,1.21,0,2.61,0,5.23,0,7.84A1,1,0,0,1,38.22,35a5.64,5.64,0,0,0-3.67,3.68c-.23.66-.45.82-1.16.82H21.77Zm0-17.3H11.06c-.26,0-.46,0-.6.31A7.45,7.45,0,0,1,6.7,26.3a.49.49,0,0,0-.34.53q0,3.06,0,6.12a.52.52,0,0,0,.36.57,7.43,7.43,0,0,1,3.71,3.7.59.59,0,0,0,.65.39H32.46a.55.55,0,0,0,.61-.37,7.43,7.43,0,0,1,3.74-3.73.49.49,0,0,0,.34-.53q0-3.06,0-6.12a.52.52,0,0,0-.35-.57,7.31,7.31,0,0,1-3.69-3.66.65.65,0,0,0-.72-.42Z"/><path class="cls-1" d="M27.52,29.92a5.76,5.76,0,1,1-5.71-5.79A5.78,5.78,0,0,1,27.52,29.92Zm-1.93,0a3.84,3.84,0,1,0-3.84,3.87A3.84,3.84,0,0,0,25.59,29.88Z"/><path class="cls-1" d="M12.62,29.91a1.44,1.44,0,1,1-2.88,0,1.44,1.44,0,0,1,2.88,0Z"/><path class="cls-1" d="M30.9,29.89a1.44,1.44,0,0,1,1.44-1.43,1.46,1.46,0,0,1,1.44,1.43,1.44,1.44,0,1,1-2.88,0Z"/></svg>