<svg id="Capa_1" data-name="Capa 1" xmlns="http://www.w3.org/2000/svg" viewBox="0 0 80 80"><defs><style>.cls-1{fill:#ffdf9f;}</style></defs><title>IgFavicon</title><path class="cls-1" d="M1.24,40c0-4.43,0-8.86,0-13.28a34.75,34.75,0,0,1,1-9.21A22,22,0,0,1,6.49,9a20.74,20.74,0,0,1,7.82-5.65,27,27,0,0,1,9.4-1.88C33.3,1,42.89,1.31,52.48,1.28A43.76,43.76,0,0,1,61.25,2,21.18,21.18,0,0,1,72.62,8a20,20,0,0,1,5,9.08,35.34,35.34,0,0,1,1,6.71c.31,4.48.12,9,.15,13.45,0,5.65.07,11.29,0,16.94A31.25,31.25,0,0,1,76.54,66a20.11,20.11,0,0,1-4.39,6.38,20.43,20.43,0,0,1-10.68,5.51,34.55,34.55,0,0,1-5.56.63c-8.85.39-17.7.17-26.55.19a53,53,0,0,1-11.52-1,20.84,20.84,0,0,1-7.44-3.24,19.44,19.44,0,0,1-6.32-7.16A24,24,0,0,1,2.15,62a44.58,44.58,0,0,1-.91-10c0-4,0-7.93,0-11.9Zm70.49-1.23c-.12-3.74.15-8.84-.15-13.94a24.93,24.93,0,0,0-1.48-8,12.74,12.74,0,0,0-8.31-7.46,29.31,29.31,0,0,0-9.55-1.1c-9.88.06-19.78-.42-29.66.31a17,17,0,0,0-6.72,1.7A13.08,13.08,0,0,0,9.3,18.45a31.73,31.73,0,0,0-1,9.38c0,10.14-.44,20.28.34,30.4a14.13,14.13,0,0,0,2.58,7.38A13.67,13.67,0,0,0,20,71a50.31,50.31,0,0,0,9.24.68c8.23,0,16.47.23,24.7-.14a27.92,27.92,0,0,0,8.4-1.23,12.8,12.8,0,0,0,8.32-8.73,30.65,30.65,0,0,0,1-8.46C71.81,48.81,71.73,44.47,71.73,38.78Z"/><path class="cls-1" d="M59.92,40.07a19.93,19.93,0,1,1-19.52-20A19.84,19.84,0,0,1,59.92,40.07ZM40,52.75c7,.34,12.84-6,12.93-12.57A12.93,12.93,0,1,0,27.08,40,12.75,12.75,0,0,0,40,52.75Z"/><path class="cls-1" d="M60.76,14.72a4.54,4.54,0,0,1,4.67,4.62A4.74,4.74,0,0,1,60.73,24,5,5,0,0,1,56,19.17C56,17.12,58.42,14.34,60.76,14.72Z"/></svg>