<?xml version="1.0" encoding="utf-8"?>
<!-- Generator: Adobe Illustrator 23.0.5, SVG Export Plug-In . SVG Version: 6.00 Build 0)  -->
<svg version="1.1" id="Capa_1" xmlns="http://www.w3.org/2000/svg" xmlns:xlink="http://www.w3.org/1999/xlink" x="0px" y="0px"
	 viewBox="0 0 1200 628" style="enable-background:new 0 0 1200 628;" xml:space="preserve">
<style type="text/css">
	.st0{fill:#567905;}
	.st1{fill:#F5F9E9;}
	.st2{fill:#768A05;}
	.st3{fill:#2D3502;}
	.st4{fill:#9BB55F;}
	.st5{fill:#FFCA5F;}
	.st6{fill:#FF7033;}
	.st7{fill:#F54900;}
	.st8{fill:#5A6903;}
	.st9{fill:#FFDF9F;}
	.st10{fill:#FFE133;}
	.st11{fill:#72A739;}
	.st12{fill:#D6DFC3;}
	.st13{fill:#FFEABF;}
</style>
<rect x="0" y="-0.46" class="st0" width="1200" height="629.24"/>
<g>
	<path class="st9" d="M599.27,551.34c-2.78,0-5.71-1.5-8.72-4.45l-3.05-2.99c-4.72-4.62-9.6-9.39-14.15-14.26
		c-4.68-5.01-10.44-8.41-17.6-10.38c-24.45-6.75-45.87-19.11-63.68-36.76c-29.45-29.19-44.51-65.46-44.76-107.81
		c-0.14-23.41-0.12-47.66,0.07-72.06c0.02-2.08-0.2-4.44-1.91-6.16c-1.79-1.8-4.18-1.8-4.96-1.8c-0.44,0-0.91,0.02-1.43,0.07
		c-1.3,0.12-2.68,0.18-4.24,0.18c-1.91,0-3.82-0.09-5.59-0.18c-5.97-0.32-10.25-4.71-10.18-10.45
		c0.69-54.2,21.85-94.01,64.68-121.69c21.81-14.1,47.06-23.09,77.19-27.49c5.77-0.84,12.08-1.48,19.86-2
		c3.63-0.24,8.41-1.4,8.04-8.65c-0.35-6.96-0.5-14.32,1.7-21.12c4.22-13.04,12.64-21.5,25.73-25.85c0.22-0.07,1.44-1.01,4.54-1.82
		s35.64-0.16,37.11,0c1.47,0.16,2.65,1.16,3.43,1.62c3.72,2.21,5.8,6.97,4.84,11.08c-1.16,4.96-5.1,8.23-10.05,8.34
		c-3.14,0.07-6.46,0.1-10.77,0.1c-2.06,0-4.13-0.01-6.19-0.01c-2.07-0.01-4.14-0.01-6.22-0.01c-1.21,0-2.42,0-3.62,0.01
		c-12.36,0.06-19.45,7.24-19.47,19.68c0,0.98-0.09,2.09-0.18,3.26c-0.29,3.59-0.61,7.66,1.55,10.72c2.22,3.15,6.27,3.15,7.79,3.15
		c0.84,0,1.73-0.04,2.61-0.09c0.77-0.04,1.53-0.08,2.27-0.08c0.4,0,0.79,0.01,1.16,0.05c30.71,3.02,56.81,10.59,79.79,23.14
		c38.69,21.12,62.79,53.24,71.63,95.44c1.87,8.92,2.84,18.82,3.05,31.16c0.12,7-4.22,11.44-11.33,11.58l-1.88,0.05
		c-1.24,0.03-2.49,0.07-3.73,0.07c-1.5,0-2.73-0.05-3.88-0.15c-0.42-0.04-0.8-0.06-1.15-0.06c-1.92,0-3.46,0.56-4.56,1.68
		c-1.57,1.58-1.78,3.73-1.77,5.62c0.11,23.39,0.09,47.17,0.06,70.17l0,2.4c-0.03,28.28-6.97,54.23-20.65,77.13
		c-20.19,33.8-49.7,56.53-87.71,67.55c-7.49,2.17-13.18,5.55-17.93,10.64c-4.29,4.6-8.89,9.11-13.35,13.47
		c-1.17,1.15-2.34,2.29-3.51,3.45C605.07,549.8,602.08,551.34,599.27,551.34z M476.74,294.66c-2.05,0-4.63,0.23-6.44,2.06
		c-1.86,1.88-2,4.46-1.98,6.74c0.17,22.29,0.14,43.85,0.07,69.72c-0.03,12.06,0.94,21.7,3.06,30.32
		c11.71,47.63,40.88,79.34,86.7,94.26c15.2,4.95,24.95,10.73,32.61,19.32c2.94,3.3,5.26,5.9,8.54,5.9c3.25,0,5.53-2.54,8.41-5.75
		c9.05-10.1,19.61-16.36,32.28-19.17c5.16-1.14,10.45-3.14,16.63-6.28c47.82-24.33,72.55-63.83,73.49-117.39
		c0.24-13.7,0.2-27.61,0.15-41.07c-0.03-9.88-0.07-20.1,0.02-30.13c0.02-2.33-0.21-4.73-1.95-6.49c-1.76-1.77-4.17-2.01-6.3-2.01
		c-24.75,0.11-48.73,0.12-68.94,0.12l-53.69-0.01c-9.17,0-45.85,0.02-55.03,0.02c-18.6,0-43.08-0.02-67.5-0.14L476.74,294.66z
		 M599.41,152.98c-25.79,0-51.92,4.67-77.68,13.89c-23.95,8.57-43.41,22.54-57.85,41.52c-12.13,15.94-19.46,34.28-22.4,56.06
		c-0.32,2.37-0.68,5.06,1.15,7.16c1.7,1.95,4.37,2.2,6.5,2.2c30.4-0.13,59.94-0.15,84.84-0.15l65.16,0.02l124.11,0
		c9.07,0,18.14,0,27.2,0.02c0,0,0.99,0.02,1.2,0.02c0.84,0,3.07,0,4.63-1.78c1.66-1.9,1.31-4.45,1.2-5.29
		c-2.25-16.38-6.33-30.1-12.48-41.95c-14.06-27.09-37.03-46.55-68.26-57.82C651.2,157.65,625.19,152.98,599.41,152.98z"/>
	<path class="st9" d="M622.51,465.8c-5.1,0-9.05-2.85-10.31-7.44c-1.66-6.1,1.52-11.3,8.11-13.26c23.02-6.85,39.2-21.18,48.07-42.59
		c3.14-7.57,4.87-15.52,5.14-23.62c0.16-4.9,1.74-13.11,10.52-13.11c0.21,0,0.42,0,0.64,0.01c9,0.39,10.09,8.8,9.94,13.78
		c-1.23,40.3-29.38,75.57-68.47,85.76C624.93,465.64,623.71,465.8,622.51,465.8L622.51,465.8z"/>
</g>
</svg>
