<svg id="Capa_1" data-name="Capa 1" xmlns="http://www.w3.org/2000/svg" viewBox="0 0 344.58 72"><defs><style>.cls-1,.cls-2{fill:#ffdf9f;}.cls-2{font-size:12px;font-family:FranklinGothic-Book, Franklin Gothic Book;letter-spacing:0.15em;}.cls-3{letter-spacing:0.12em;}.cls-4{letter-spacing:0.14em;}.cls-5{letter-spacing:0.15em;}.cls-6{letter-spacing:0.13em;}</style></defs><title>LogoNutsHouse</title><path class="cls-1" d="M39,67.58A1.73,1.73,0,0,1,37.86,67l-.4-.39c-.63-.62-1.28-1.25-1.88-1.9a4.85,4.85,0,0,0-2.33-1.37,19.07,19.07,0,0,1-8.45-4.88,19.61,19.61,0,0,1-5.94-14.31c0-3.1,0-6.32,0-9.56a1.07,1.07,0,0,0-.26-.81.89.89,0,0,0-.66-.24h-.18l-.57,0-.74,0a1.37,1.37,0,0,1-1.35-1.39C15.2,25,18,19.68,23.69,16a25.16,25.16,0,0,1,10.24-3.64c.77-.12,1.61-.2,2.64-.27a1,1,0,0,0,1.07-1.15,7.79,7.79,0,0,1,.22-2.8,5.06,5.06,0,0,1,3.42-3.43,2.31,2.31,0,0,1,.6-.24c.41-.11,4.73,0,4.92,0a1.16,1.16,0,0,1,.46.21,1.41,1.41,0,0,1,.64,1.47,1.38,1.38,0,0,1-1.33,1.11H43a2.37,2.37,0,0,0-2.58,2.61c0,.13,0,.28,0,.43a2.13,2.13,0,0,0,.21,1.43,1.22,1.22,0,0,0,1,.41h.8A27.13,27.13,0,0,1,53,15.21a18.13,18.13,0,0,1,9.5,12.66A21.75,21.75,0,0,1,62.94,32a1.42,1.42,0,0,1-1.51,1.53h-.74l-.52,0H60a.79.79,0,0,0-.6.22,1,1,0,0,0-.24.75c0,3.1,0,6.26,0,9.31v.32a19.71,19.71,0,0,1-2.74,10.23,19.46,19.46,0,0,1-11.64,9,5.09,5.09,0,0,0-2.38,1.41c-.57.62-1.18,1.21-1.77,1.79L40.2,67A1.77,1.77,0,0,1,39,67.58Zm-16.26-34a1.16,1.16,0,0,0-.85.27,1.19,1.19,0,0,0-.27.9c0,2.95,0,5.81,0,9.25a16.75,16.75,0,0,0,.41,4,16.49,16.49,0,0,0,11.5,12.5A9.25,9.25,0,0,1,37.89,63c.39.44.7.78,1.13.78s.74-.34,1.12-.76a7.93,7.93,0,0,1,4.28-2.55,9,9,0,0,0,2.21-.83c6.34-3.23,9.62-8.47,9.75-15.57,0-1.82,0-3.67,0-5.45,0-1.31,0-2.67,0-4a1.15,1.15,0,0,0-.26-.86,1.09,1.09,0,0,0-.83-.27l-9.15,0H31.73l-8.95,0ZM39,14.73a30.66,30.66,0,0,0-10.31,1.84,16.31,16.31,0,0,0-7.67,5.51,15.35,15.35,0,0,0-3,7.44,1.12,1.12,0,0,0,.16.95,1.07,1.07,0,0,0,.86.29c4,0,8,0,11.25,0H59.24a.77.77,0,0,0,.61-.24.9.9,0,0,0,.16-.7,16.89,16.89,0,0,0-1.66-5.57,15.85,15.85,0,0,0-9.05-7.67A30.25,30.25,0,0,0,39,14.73Z"/><path class="cls-1" d="M42.1,56.23a1.33,1.33,0,0,1-1.36-1,1.39,1.39,0,0,1,1.07-1.76,9.5,9.5,0,0,0,6.38-5.65,8.76,8.76,0,0,0,.68-3.14c0-.65.23-1.74,1.4-1.74h.08c1.2.06,1.34,1.17,1.32,1.83a12.21,12.21,0,0,1-9.08,11.38,2.12,2.12,0,0,1-.49.06Z"/><path class="cls-1" d="M77.13,19.55v22.8h3.64V43H73.29v-.61h3.2V20.15h-3.2v-.6Zm18.86,0v.6H92.71V43.27h-.86L76.68,19.55h4.9l10.49,16.7V20.15H88.52v-.6Z"/><path class="cls-1" d="M123.09,19.55v.6h-3V35.78c0,2.57-.6,4.49-1.8,5.74s-3,1.89-5.57,1.89c-2.83,0-4.9-.59-6.21-1.79s-2-3.14-2-5.84V20.15h-2.81v-.6h10v.6h-3.13V35.47a18,18,0,0,0,.21,2.85,6.52,6.52,0,0,0,.74,2.27,3.81,3.81,0,0,0,1.54,1.49,5.36,5.36,0,0,0,2.57.54,6.47,6.47,0,0,0,3.09-.69,4.56,4.56,0,0,0,2-2.19,9.46,9.46,0,0,0,.7-4V20.15H116.7v-.6Z"/><path class="cls-1" d="M133.5,43v-.61h3.43V20.15h-2.39a4.53,4.53,0,0,0-2.18.49A3.83,3.83,0,0,0,130.91,22a6.87,6.87,0,0,0-.85,2.12,16.3,16.3,0,0,0-.4,2.71H129v-7.3h19.89v7.3h-.61a15.35,15.35,0,0,0-.39-2.71,7.71,7.71,0,0,0-.87-2.12,3.91,3.91,0,0,0-1.45-1.38,4.49,4.49,0,0,0-2.19-.49H141v22.2h3.44V43Z"/><path class="cls-1" d="M163.78,43.41a8.23,8.23,0,0,1-3.22-.58,7,7,0,0,1-2.35-1.59l-2.09,2h-.55v-7h.61a13.16,13.16,0,0,0,1,2.44,8.6,8.6,0,0,0,1.49,2.07,6.67,6.67,0,0,0,2.11,1.45,7,7,0,0,0,2.79.53,6,6,0,0,0,2.68-.55A4,4,0,0,0,168,40.69a4.51,4.51,0,0,0,.62-2.4,3.56,3.56,0,0,0-.68-2.2,6.08,6.08,0,0,0-1.8-1.54,19.29,19.29,0,0,0-2.45-1.22q-1.34-.57-2.67-1.2a12.88,12.88,0,0,1-2.44-1.53,7.13,7.13,0,0,1-1.8-2.17,6.57,6.57,0,0,1-.68-3.14,5.57,5.57,0,0,1,.93-3.22,6.23,6.23,0,0,1,2.47-2.1,7.65,7.65,0,0,1,3.35-.74,7.79,7.79,0,0,1,2.69.46,6.33,6.33,0,0,1,2.19,1.39l2.06-1.85h.51V26h-.61a10.52,10.52,0,0,0-1.42-3.34A6.24,6.24,0,0,0,166,20.61a6,6,0,0,0-2.95-.71,4.29,4.29,0,0,0-3.05,1,3.36,3.36,0,0,0-1.07,2.59,3.08,3.08,0,0,0,.67,2,6,6,0,0,0,1.78,1.44,26,26,0,0,0,2.42,1.19c.88.38,1.76.8,2.64,1.25A13.31,13.31,0,0,1,168.88,31a7.24,7.24,0,0,1,1.77,2.25,7.06,7.06,0,0,1,.67,3.22,7,7,0,0,1-1,3.69,6.67,6.67,0,0,1-2.67,2.43A8.62,8.62,0,0,1,163.78,43.41Z"/><path class="cls-1" d="M212.58,19.55v.6h-2.81v22.2h2.81V43h-9.83v-.61h2.93V31.72h-9.16V42.35h2.92V43H189.6v-.61h2.81V20.15H189.6v-.6h9.84v.6h-2.92v11h9.16v-11h-2.93v-.6Z"/><path class="cls-1" d="M229.6,43.27a9.86,9.86,0,0,1-4.38-.92A9.35,9.35,0,0,1,222,39.79a11.37,11.37,0,0,1-2-3.82,15.3,15.3,0,0,1-.7-4.72,14.71,14.71,0,0,1,.74-4.71,11.84,11.84,0,0,1,2.1-3.83,10,10,0,0,1,3.28-2.56,10.23,10.23,0,0,1,8.48,0,10,10,0,0,1,3.28,2.56,11.84,11.84,0,0,1,2.1,3.83,14.71,14.71,0,0,1,.74,4.71,15.3,15.3,0,0,1-.7,4.72,11.37,11.37,0,0,1-2,3.82A9.39,9.39,0,0,1,234,42.35,9.85,9.85,0,0,1,229.6,43.27Zm0-.56a4.41,4.41,0,0,0,2.89-.91,5.65,5.65,0,0,0,1.71-2.52,15,15,0,0,0,.82-3.66,40.49,40.49,0,0,0,.23-4.37,33.68,33.68,0,0,0-.27-4.36,15.07,15.07,0,0,0-.89-3.67,6.18,6.18,0,0,0-1.73-2.51,4.16,4.16,0,0,0-2.76-.91,4.21,4.21,0,0,0-2.78.91,5.9,5.9,0,0,0-1.73,2.51,15.07,15.07,0,0,0-.89,3.67,33.68,33.68,0,0,0-.27,4.36,40.56,40.56,0,0,0,.22,4.37,15,15,0,0,0,.82,3.66,5.75,5.75,0,0,0,1.72,2.52A4.43,4.43,0,0,0,229.6,42.71Z"/><path class="cls-1" d="M267.8,19.55v.6h-2.95V35.78c0,2.57-.6,4.49-1.8,5.74s-3.05,1.89-5.57,1.89c-2.83,0-4.9-.59-6.21-1.79s-2-3.14-2-5.84V20.15H246.5v-.6h10v.6H253.4V35.47a18,18,0,0,0,.21,2.85,6.52,6.52,0,0,0,.74,2.27,3.81,3.81,0,0,0,1.54,1.49,5.36,5.36,0,0,0,2.57.54,6.47,6.47,0,0,0,3.09-.69,4.56,4.56,0,0,0,2-2.19,9.46,9.46,0,0,0,.7-4V20.15h-2.84v-.6Z"/><path class="cls-1" d="M282.75,43.41a8.19,8.19,0,0,1-3.22-.58,7,7,0,0,1-2.35-1.59l-2.09,2h-.55v-7h.61a13.16,13.16,0,0,0,1,2.44,8.6,8.6,0,0,0,1.49,2.07,6.56,6.56,0,0,0,2.11,1.45,7,7,0,0,0,2.79.53,6,6,0,0,0,2.68-.55,4.07,4.07,0,0,0,1.75-1.55,4.51,4.51,0,0,0,.61-2.4,3.5,3.5,0,0,0-.68-2.2,6,6,0,0,0-1.79-1.54,19.29,19.29,0,0,0-2.45-1.22q-1.33-.57-2.67-1.2a12.58,12.58,0,0,1-2.44-1.53,7.13,7.13,0,0,1-1.8-2.17,6.56,6.56,0,0,1-.69-3.14,5.58,5.58,0,0,1,.94-3.22,6.23,6.23,0,0,1,2.47-2.1,7.65,7.65,0,0,1,3.35-.74,7.79,7.79,0,0,1,2.69.46,6.2,6.2,0,0,1,2.18,1.39l2.06-1.85h.52V26h-.61a10.75,10.75,0,0,0-1.42-3.34A6.24,6.24,0,0,0,285,20.61a6,6,0,0,0-3-.71,4.33,4.33,0,0,0-3.06,1,3.35,3.35,0,0,0-1.06,2.59,3.08,3.08,0,0,0,.67,2,6.13,6.13,0,0,0,1.77,1.44c.74.41,1.54.81,2.42,1.19s1.77.8,2.65,1.25A13.66,13.66,0,0,1,287.85,31a7.24,7.24,0,0,1,1.77,2.25,7.06,7.06,0,0,1,.67,3.22,6.86,6.86,0,0,1-1,3.69,6.55,6.55,0,0,1-2.67,2.43A8.54,8.54,0,0,1,282.75,43.41Z"/><path class="cls-1" d="M296.52,43v-.61h2.81V20.15h-2.81v-.6h17.42V26h-.61a8,8,0,0,0-.79-3,4.94,4.94,0,0,0-1.86-2.06,5.71,5.71,0,0,0-3-.75h-4.2v22.2h3.88a6.9,6.9,0,0,0,3.48-.78,5,5,0,0,0,2-2.21,9.55,9.55,0,0,0,.81-3.42h.61v7Zm11.79-8.41a4.3,4.3,0,0,0-.65-1.81,3.64,3.64,0,0,0-1.27-1.17,3.41,3.41,0,0,0-1.64-.41h-2.1v-.61h2.1a3.63,3.63,0,0,0,1.64-.38,3.52,3.52,0,0,0,1.26-1.11,4,4,0,0,0,.66-1.77h.61v7.26Z"/><text class="cls-2" transform="translate(113.09 61.26)">ALIMEN<tspan class="cls-3" x="50.57" y="0">T</tspan><tspan x="57.89" y="0">OS SA</tspan><tspan class="cls-4" x="97.79" y="0">L</tspan><tspan class="cls-5" x="105.33" y="0">U</tspan><tspan class="cls-6" x="114.45" y="0">D</tspan><tspan class="cls-5" x="123.83" y="0">ABLES</tspan></text></svg>