<svg id="Capa_1" data-name="Capa 1" xmlns="http://www.w3.org/2000/svg" viewBox="0 0 50 50"><defs><style>.cls-1{fill:#ffdf9f;}</style></defs><title>MapsFavicon</title><path class="cls-1" d="M25.08,1c7.14.34,12.48,3.53,15.49,10.14a15.14,15.14,0,0,1,.53,11.08,60.49,60.49,0,0,1-6.48,13.46c-1.68,2.77-3.5,5.44-5.39,8.06-1.24,1.71-2.57,3.37-3.84,5.06-.28.36-.49.45-.82,0A139.08,139.08,0,0,1,14.43,34.14a63.89,63.89,0,0,1-5-10.28,16.59,16.59,0,0,1-.16-12.5,16.25,16.25,0,0,1,8.08-8.62A16.35,16.35,0,0,1,25.08,1Zm-.14,8.41a8.07,8.07,0,0,0-8.17,8,8.2,8.2,0,0,0,16.4-.47A8.17,8.17,0,0,0,24.94,9.36Z"/></svg>