<?xml version="1.0" encoding="utf-8"?>
<!-- Generator: Adobe Illustrator 23.0.5, SVG Export Plug-In . SVG Version: 6.00 Build 0)  -->
<svg version="1.1" id="Capa_1" xmlns="http://www.w3.org/2000/svg" xmlns:xlink="http://www.w3.org/1999/xlink" x="0px" y="0px"
	 viewBox="0 0 344.58 72" style="enable-background:new 0 0 344.58 72;" xml:space="preserve">
<style type="text/css">
	.st0{fill:#567905;}
	.st1{fill:#F5F9E9;}
	.st2{fill:#768A05;}
	.st3{fill:#2D3502;}
	.st4{fill:#9BB55F;}
	.st5{fill:#FFCA5F;}
	.st6{fill:#FF7033;}
	.st7{fill:#F54900;}
	.st8{fill:#5A6903;}
	.st9{fill:#FFDF9F;}
	.st10{fill:#FFE133;}
	.st11{fill:#72A739;}
	.st12{fill:#D6DFC3;}
	.st13{fill:#FFEABF;}
</style>
<g>
	<path class="st9" d="M39.02,67.58c-0.37,0-0.76-0.2-1.16-0.59l-0.4-0.4c-0.63-0.61-1.27-1.25-1.88-1.89
		c-0.62-0.66-1.38-1.12-2.33-1.38c-3.24-0.9-6.09-2.54-8.45-4.88c-3.91-3.87-5.91-8.69-5.94-14.3c-0.02-3.11-0.02-6.32,0.01-9.56
		c0-0.28-0.03-0.59-0.25-0.82c-0.24-0.24-0.55-0.24-0.66-0.24c-0.06,0-0.12,0-0.19,0.01c-0.17,0.02-0.36,0.02-0.56,0.02
		c-0.25,0-0.51-0.01-0.74-0.02c-0.79-0.04-1.36-0.63-1.35-1.39c0.09-7.19,2.9-12.47,8.58-16.15c2.89-1.87,6.24-3.06,10.24-3.65
		c0.77-0.11,1.6-0.2,2.63-0.27c0.48-0.03,1.12-0.19,1.07-1.15c-0.05-0.92-0.07-1.9,0.23-2.8c0.56-1.73,1.68-2.85,3.41-3.43
		c0.03-0.01,0.19-0.13,0.6-0.24c0.41-0.11,4.73-0.02,4.92,0s0.35,0.15,0.46,0.21c0.49,0.29,0.77,0.93,0.64,1.47
		c-0.15,0.66-0.68,1.09-1.33,1.11c-0.42,0.01-0.86,0.01-1.43,0.01c-0.27,0-0.55,0-0.82,0c-0.27,0-0.55,0-0.82,0
		c-0.16,0-0.32,0-0.48,0c-1.64,0.01-2.58,0.96-2.58,2.61c0,0.13-0.01,0.28-0.02,0.43c-0.04,0.48-0.08,1.02,0.21,1.42
		c0.29,0.42,0.83,0.42,1.03,0.42c0.11,0,0.23-0.01,0.35-0.01c0.1-0.01,0.2-0.01,0.3-0.01c0.05,0,0.1,0,0.15,0.01
		c4.07,0.4,7.54,1.4,10.59,3.07c5.13,2.8,8.33,7.06,9.5,12.66c0.25,1.18,0.38,2.5,0.4,4.13c0.02,0.93-0.56,1.52-1.5,1.54l-0.25,0.01
		c-0.17,0-0.33,0.01-0.5,0.01c-0.2,0-0.36-0.01-0.51-0.02c-0.06-0.01-0.11-0.01-0.15-0.01c-0.25,0-0.46,0.07-0.61,0.22
		c-0.21,0.21-0.24,0.5-0.23,0.75c0.01,3.1,0.01,6.26,0.01,9.31l0,0.32c0,3.75-0.93,7.2-2.74,10.23c-2.68,4.48-6.59,7.5-11.64,8.96
		c-0.99,0.29-1.75,0.74-2.38,1.41c-0.57,0.61-1.18,1.21-1.77,1.79c-0.16,0.15-0.31,0.3-0.47,0.46
		C39.79,67.38,39.39,67.58,39.02,67.58z M22.76,33.53c-0.27,0-0.61,0.03-0.85,0.27c-0.25,0.25-0.27,0.59-0.26,0.89
		c0.02,2.96,0.02,5.82,0.01,9.25c0,1.6,0.12,2.88,0.41,4.02c1.55,6.32,5.42,10.53,11.5,12.51c2.02,0.66,3.31,1.42,4.33,2.56
		c0.39,0.44,0.7,0.78,1.13,0.78c0.43,0,0.73-0.34,1.12-0.76c1.2-1.34,2.6-2.17,4.28-2.54c0.69-0.15,1.39-0.42,2.21-0.83
		c6.35-3.23,9.63-8.47,9.75-15.58c0.03-1.82,0.03-3.66,0.02-5.45c0-1.31-0.01-2.67,0-4c0-0.31-0.03-0.63-0.26-0.86
		c-0.23-0.24-0.55-0.27-0.84-0.27c-3.28,0.01-6.47,0.02-9.15,0.02l-7.12,0c-1.22,0-6.08,0-7.3,0c-2.47,0-5.72,0-8.96-0.02
		L22.76,33.53z M39.04,14.73c-3.42,0-6.89,0.62-10.31,1.84c-3.18,1.14-5.76,2.99-7.68,5.51c-1.61,2.12-2.58,4.55-2.97,7.44
		c-0.04,0.31-0.09,0.67,0.15,0.95c0.23,0.26,0.58,0.29,0.86,0.29c4.03-0.02,7.95-0.02,11.26-0.02l8.65,0l16.47,0
		c1.2,0,2.41,0,3.61,0c0,0,0.13,0,0.16,0c0.11,0,0.41,0,0.61-0.24c0.22-0.25,0.17-0.59,0.16-0.7c-0.3-2.17-0.84-3.99-1.66-5.57
		c-1.87-3.59-4.91-6.18-9.06-7.67C45.91,15.35,42.46,14.73,39.04,14.73z"/>
	<path class="st9" d="M42.1,56.23c-0.68,0-1.2-0.38-1.37-0.99c-0.22-0.81,0.2-1.5,1.08-1.76c3.05-0.91,5.2-2.81,6.38-5.65
		c0.42-1.01,0.65-2.06,0.68-3.13c0.02-0.65,0.23-1.74,1.4-1.74c0.03,0,0.06,0,0.08,0c1.19,0.05,1.34,1.17,1.32,1.83
		c-0.16,5.35-3.9,10.03-9.08,11.38C42.42,56.21,42.26,56.23,42.1,56.23L42.1,56.23z"/>
</g>
<g>
	<path class="st9" d="M77.13,19.55v22.81h3.64v0.61h-7.48v-0.61h3.2v-22.2h-3.2v-0.61H77.13z M95.99,19.55v0.61h-3.28v23.12h-0.86
		L76.68,19.55h4.9l10.49,16.7V20.15h-3.54v-0.61H95.99z"/>
	<path class="st9" d="M123.09,19.55v0.61h-2.95v15.63c0,2.57-0.6,4.49-1.79,5.74c-1.2,1.26-3.05,1.89-5.57,1.89
		c-2.83,0-4.9-0.6-6.21-1.8c-1.31-1.2-1.96-3.14-1.96-5.84V20.15h-2.81v-0.61h10.02v0.61h-3.12v15.31c0,1.03,0.07,1.98,0.2,2.86
		c0.14,0.88,0.38,1.63,0.74,2.26c0.36,0.63,0.87,1.13,1.54,1.49c0.67,0.36,1.52,0.54,2.58,0.54c1.2,0,2.23-0.23,3.09-0.69
		c0.86-0.46,1.53-1.19,2-2.19c0.47-1,0.7-2.32,0.7-3.96V20.15h-2.84v-0.61H123.09z"/>
	<path class="st9" d="M133.5,42.96v-0.61h3.43v-22.2h-2.39c-0.86,0-1.59,0.16-2.19,0.48c-0.59,0.32-1.08,0.78-1.45,1.38
		c-0.38,0.6-0.66,1.31-0.85,2.12c-0.19,0.82-0.33,1.72-0.4,2.71h-0.63v-7.31h19.89v7.31h-0.61c-0.06-0.99-0.19-1.89-0.4-2.71
		c-0.2-0.82-0.49-1.52-0.87-2.12c-0.38-0.6-0.86-1.06-1.44-1.38s-1.32-0.48-2.19-0.48h-2.39v22.2h3.43v0.61H133.5z"/>
	<path class="st9" d="M163.78,43.41c-1.23,0-2.3-0.2-3.22-0.59c-0.92-0.39-1.71-0.92-2.35-1.58l-2.09,2.03h-0.55V36.3h0.61
		c0.24,0.85,0.56,1.67,0.96,2.44c0.4,0.78,0.9,1.47,1.49,2.08c0.59,0.61,1.3,1.09,2.11,1.44c0.81,0.35,1.74,0.53,2.79,0.53
		c1.03,0,1.92-0.18,2.68-0.55s1.34-0.88,1.75-1.55c0.41-0.67,0.62-1.47,0.62-2.4c0-0.87-0.23-1.61-0.68-2.2
		c-0.45-0.59-1.05-1.11-1.8-1.54c-0.74-0.44-1.56-0.84-2.45-1.22c-0.89-0.38-1.78-0.78-2.67-1.2c-0.89-0.43-1.7-0.94-2.44-1.53
		c-0.74-0.59-1.34-1.32-1.79-2.17s-0.69-1.9-0.69-3.14s0.31-2.31,0.94-3.22c0.62-0.91,1.45-1.61,2.47-2.1
		c1.02-0.49,2.14-0.73,3.36-0.73c0.97,0,1.86,0.15,2.69,0.46s1.55,0.77,2.19,1.38l2.06-1.84h0.52v6.79h-0.61
		c-0.33-1.31-0.81-2.42-1.42-3.34c-0.61-0.92-1.35-1.61-2.22-2.08c-0.86-0.47-1.85-0.7-2.95-0.7c-1.33,0-2.35,0.33-3.06,0.98
		c-0.71,0.66-1.06,1.52-1.06,2.59c0,0.79,0.22,1.46,0.67,2.01c0.45,0.55,1.04,1.03,1.77,1.44c0.73,0.41,1.54,0.81,2.42,1.19
		c0.88,0.38,1.76,0.8,2.65,1.26s1.69,0.99,2.43,1.61c0.73,0.61,1.32,1.36,1.77,2.25s0.67,1.96,0.67,3.22c0,1.42-0.32,2.65-0.97,3.69
		c-0.65,1.05-1.54,1.85-2.67,2.43S165.25,43.41,163.78,43.41z"/>
	<path class="st9" d="M212.58,19.55v0.61h-2.81v22.2h2.81v0.61h-9.83v-0.61h2.93V31.72h-9.16v10.63h2.92v0.61h-9.83v-0.61h2.81
		v-22.2h-2.81v-0.61h9.83v0.61h-2.92V31.1h9.16V20.15h-2.93v-0.61H212.58z"/>
	<path class="st9" d="M229.6,43.27c-1.64,0-3.1-0.31-4.38-0.92c-1.28-0.61-2.36-1.47-3.25-2.56c-0.9-1.09-1.57-2.37-2.04-3.82
		s-0.69-3.03-0.69-4.71c0-1.69,0.24-3.26,0.73-4.71c0.49-1.46,1.19-2.73,2.11-3.82c0.92-1.09,2.01-1.95,3.28-2.56
		c1.27-0.61,2.68-0.92,4.25-0.92c1.55,0,2.96,0.31,4.23,0.92c1.27,0.61,2.36,1.47,3.28,2.56c0.92,1.09,1.62,2.37,2.11,3.82
		c0.49,1.46,0.73,3.03,0.73,4.71c0,1.69-0.23,3.26-0.69,4.71c-0.46,1.46-1.14,2.73-2.04,3.82c-0.9,1.09-1.98,1.95-3.26,2.56
		C232.67,42.97,231.22,43.27,229.6,43.27z M229.6,42.71c1.19,0,2.15-0.3,2.9-0.91c0.74-0.61,1.31-1.45,1.71-2.51
		c0.4-1.07,0.67-2.29,0.82-3.67c0.15-1.38,0.23-2.83,0.23-4.36c0-1.53-0.09-2.98-0.26-4.36c-0.18-1.38-0.48-2.6-0.9-3.67
		c-0.42-1.07-1-1.91-1.73-2.51c-0.73-0.61-1.65-0.91-2.76-0.91c-1.11,0-2.04,0.3-2.78,0.91c-0.74,0.61-1.32,1.45-1.73,2.51
		c-0.42,1.07-0.71,2.29-0.89,3.67s-0.27,2.83-0.27,4.36c0,1.53,0.07,2.98,0.22,4.36s0.42,2.6,0.82,3.67
		c0.4,1.07,0.97,1.91,1.72,2.51C227.43,42.41,228.4,42.71,229.6,42.71z"/>
	<path class="st9" d="M267.8,19.55v0.61h-2.95v15.63c0,2.57-0.6,4.49-1.79,5.74c-1.2,1.26-3.05,1.89-5.57,1.89
		c-2.83,0-4.9-0.6-6.21-1.8c-1.31-1.2-1.96-3.14-1.96-5.84V20.15h-2.81v-0.61h10.02v0.61h-3.12v15.31c0,1.03,0.07,1.98,0.2,2.86
		c0.13,0.88,0.38,1.63,0.74,2.26s0.87,1.13,1.54,1.49c0.67,0.36,1.53,0.54,2.58,0.54c1.2,0,2.23-0.23,3.09-0.69s1.53-1.19,2-2.19
		c0.47-1,0.7-2.32,0.7-3.96V20.15h-2.84v-0.61H267.8z"/>
	<path class="st9" d="M282.75,43.41c-1.23,0-2.3-0.2-3.22-0.59s-1.7-0.92-2.35-1.58l-2.09,2.03h-0.55V36.3h0.61
		c0.24,0.85,0.56,1.67,0.96,2.44s0.9,1.47,1.49,2.08c0.59,0.61,1.29,1.09,2.11,1.44c0.81,0.35,1.74,0.53,2.79,0.53
		c1.03,0,1.92-0.18,2.68-0.55c0.75-0.36,1.34-0.88,1.75-1.55c0.41-0.67,0.62-1.47,0.62-2.4c0-0.87-0.23-1.61-0.68-2.2
		c-0.45-0.59-1.05-1.11-1.79-1.54c-0.74-0.44-1.56-0.84-2.45-1.22s-1.78-0.78-2.67-1.2c-0.89-0.43-1.7-0.94-2.44-1.53
		c-0.74-0.59-1.34-1.32-1.8-2.17s-0.69-1.9-0.69-3.14s0.31-2.31,0.94-3.22c0.63-0.91,1.45-1.61,2.47-2.1
		c1.02-0.49,2.14-0.73,3.36-0.73c0.97,0,1.86,0.15,2.68,0.46s1.55,0.77,2.19,1.38l2.06-1.84h0.52v6.79h-0.61
		c-0.33-1.31-0.81-2.42-1.42-3.34c-0.61-0.92-1.35-1.61-2.22-2.08c-0.86-0.47-1.85-0.7-2.95-0.7c-1.33,0-2.35,0.33-3.06,0.98
		c-0.71,0.66-1.06,1.52-1.06,2.59c0,0.79,0.22,1.46,0.67,2.01c0.45,0.55,1.04,1.03,1.77,1.44s1.54,0.81,2.42,1.19
		c0.88,0.38,1.76,0.8,2.65,1.26s1.69,0.99,2.43,1.61c0.73,0.61,1.32,1.36,1.77,2.25s0.67,1.96,0.67,3.22c0,1.42-0.32,2.65-0.97,3.69
		c-0.65,1.05-1.54,1.85-2.67,2.43S284.22,43.41,282.75,43.41z"/>
	<path class="st9" d="M296.52,42.96v-0.61h2.81v-22.2h-2.81v-0.61h17.42v6.4h-0.61c-0.09-1.11-0.36-2.11-0.79-2.98
		s-1.05-1.56-1.87-2.06c-0.81-0.5-1.83-0.75-3.04-0.75h-4.2v22.2h3.89c1.42,0,2.57-0.26,3.47-0.78c0.9-0.52,1.58-1.26,2.03-2.22
		c0.45-0.96,0.73-2.1,0.82-3.42h0.61v7.02H296.52z M308.3,34.55c-0.09-0.7-0.31-1.3-0.65-1.8c-0.34-0.5-0.76-0.9-1.26-1.17
		c-0.5-0.28-1.05-0.41-1.65-0.41h-2.09v-0.61h2.09c0.59,0,1.14-0.13,1.64-0.38s0.92-0.62,1.26-1.11c0.34-0.48,0.56-1.07,0.66-1.77
		h0.61v7.26H308.3z"/>
</g>
<g>
	<path class="st9" d="M121.64,60.58h-1.02l-0.8-2.34h-2.97l-0.71,2.34h-0.84l2.6-8h1.13L121.64,60.58z M119.6,57.5l-1.24-3.84
		l-1.24,3.84H119.6z"/>
	<path class="st9" d="M129.03,59.7v0.88h-4.72v-8h1.03v7.12H129.03z"/>
	<path class="st9" d="M132.82,60.58h-1v-8h1V60.58z"/>
	<path class="st9" d="M144.18,60.58h-0.97V53.6l-2.6,6.98h-0.68l-2.62-6.98v6.98h-0.85v-8h1.48l2.42,6.4l2.36-6.4h1.46V60.58z"/>
	<path class="st9" d="M152.98,59.7v0.88h-5.17v-8h5.06v0.88h-4.06v2.54h3.22v0.81h-3.22v2.88H152.98z"/>
	<path class="st9" d="M161.9,60.58h-0.97l-4.14-6.97l0.01,0.53c0.01,0.2,0.02,0.37,0.02,0.5v5.94h-0.81v-8h1.25l3.87,6.52
		l-0.01-0.56c-0.01-0.22-0.01-0.41-0.01-0.58v-5.38h0.79V60.58z"/>
	<path class="st9" d="M167.94,60.58h-1v-7.12h-2.29v-0.88h5.59v0.88h-2.3V60.58z"/>
	<path class="st9" d="M175.39,60.75c-1.03,0-1.83-0.4-2.4-1.2c-0.57-0.8-0.86-1.78-0.86-2.94c0-1.21,0.3-2.21,0.9-3
		c0.6-0.79,1.4-1.18,2.39-1.18c0.99,0,1.78,0.39,2.38,1.16c0.6,0.78,0.9,1.75,0.9,2.93c0,1.13-0.29,2.12-0.87,2.96
		C177.24,60.33,176.43,60.75,175.39,60.75z M175.41,59.93c0.7,0,1.25-0.32,1.64-0.96c0.39-0.64,0.59-1.46,0.59-2.46
		c0-1.03-0.2-1.84-0.61-2.41c-0.41-0.58-0.95-0.86-1.63-0.86c-0.68,0-1.23,0.31-1.63,0.93c-0.4,0.62-0.6,1.43-0.6,2.44
		c0,0.98,0.2,1.78,0.61,2.4C174.19,59.63,174.73,59.93,175.41,59.93z"/>
	<path class="st9" d="M180.95,58.47l0.9-0.21c0.36,1.09,1.15,1.63,2.36,1.63c0.63,0,1.11-0.13,1.43-0.4s0.48-0.63,0.48-1.08
		c0-0.34-0.12-0.62-0.37-0.82s-0.53-0.35-0.85-0.43l-1.6-0.39c-0.41-0.11-0.75-0.23-1.02-0.38s-0.49-0.38-0.67-0.7
		c-0.18-0.31-0.28-0.67-0.28-1.07c0-0.67,0.25-1.2,0.76-1.6s1.15-0.6,1.94-0.6c1.45,0,2.41,0.66,2.87,1.97L186,54.67
		c-0.11-0.47-0.35-0.82-0.74-1.06s-0.81-0.36-1.25-0.36c-0.44,0-0.83,0.12-1.17,0.35s-0.51,0.56-0.51,0.98c0,0.59,0.43,0.99,1.3,1.2
		l1.5,0.35c1.37,0.33,2.05,1.06,2.05,2.21c0,0.69-0.26,1.27-0.77,1.73s-1.24,0.69-2.17,0.69C182.58,60.75,181.48,59.99,180.95,58.47
		z"/>
	<path class="st9" d="M194.05,58.47l0.9-0.21c0.36,1.09,1.15,1.63,2.36,1.63c0.63,0,1.11-0.13,1.43-0.4s0.48-0.63,0.48-1.08
		c0-0.34-0.12-0.62-0.37-0.82s-0.53-0.35-0.85-0.43l-1.6-0.39c-0.41-0.11-0.75-0.23-1.02-0.38s-0.49-0.38-0.67-0.7
		c-0.18-0.31-0.28-0.67-0.28-1.07c0-0.67,0.25-1.2,0.76-1.6s1.15-0.6,1.94-0.6c1.45,0,2.41,0.66,2.87,1.97l-0.91,0.27
		c-0.11-0.47-0.35-0.82-0.74-1.06s-0.81-0.36-1.25-0.36c-0.44,0-0.83,0.12-1.17,0.35s-0.51,0.56-0.51,0.98c0,0.59,0.43,0.99,1.3,1.2
		l1.5,0.35c1.37,0.33,2.05,1.06,2.05,2.21c0,0.69-0.26,1.27-0.77,1.73s-1.24,0.69-2.17,0.69C195.67,60.75,194.58,59.99,194.05,58.47
		z"/>
	<path class="st9" d="M208.78,60.58h-1.02l-0.8-2.34h-2.97l-0.71,2.34h-0.84l2.6-8h1.13L208.78,60.58z M206.74,57.5l-1.24-3.84
		l-1.24,3.84H206.74z"/>
	<path class="st9" d="M216.17,59.7v0.88h-4.72v-8h1.03v7.12H216.17z"/>
	<path class="st9" d="M223.34,52.59h0.83v5.22c0,1.05-0.26,1.8-0.77,2.25c-0.51,0.46-1.19,0.68-2.02,0.68
		c-0.93,0-1.61-0.23-2.06-0.7c-0.45-0.47-0.67-1.21-0.67-2.23v-5.22h1v5.22c0,0.62,0.07,1.06,0.22,1.31
		c0.14,0.25,0.36,0.44,0.66,0.56s0.6,0.18,0.92,0.18c0.62,0,1.09-0.16,1.41-0.49c0.32-0.33,0.48-0.85,0.48-1.57V52.59z"/>
	<path class="st9" d="M227.68,60.58v-8h2.68c1.13,0,2.01,0.38,2.64,1.15s0.94,1.71,0.94,2.82c0,1.13-0.31,2.08-0.92,2.86
		s-1.39,1.16-2.33,1.16H227.68z M228.68,59.73h1.62c0.86,0,1.51-0.3,1.96-0.89s0.67-1.38,0.67-2.35c0-0.79-0.21-1.5-0.64-2.13
		s-1.09-0.94-1.99-0.94h-1.62V59.73z"/>
	<path class="st9" d="M242.22,60.58h-1.02l-0.8-2.34h-2.97l-0.72,2.34h-0.84l2.6-8h1.13L242.22,60.58z M240.18,57.5l-1.24-3.84
		l-1.24,3.84H240.18z"/>
	<path class="st9" d="M244.9,60.58v-8h3.16c0.8,0,1.39,0.2,1.77,0.59c0.38,0.39,0.58,0.84,0.58,1.36c0,0.91-0.47,1.51-1.42,1.8
		c0.56,0.14,0.98,0.4,1.25,0.77c0.27,0.37,0.41,0.79,0.41,1.26c0,0.63-0.21,1.16-0.64,1.58c-0.42,0.42-1.08,0.64-1.96,0.64H244.9z
		 M245.86,56.01h1.74c0.72,0,1.21-0.14,1.45-0.41s0.36-0.6,0.36-0.97c0-0.37-0.13-0.66-0.39-0.89s-0.65-0.34-1.16-0.34h-2V56.01z
		 M245.86,59.7h2.14c0.52,0,0.93-0.13,1.21-0.38s0.43-0.58,0.43-0.99c0-0.29-0.06-0.55-0.19-0.79s-0.31-0.43-0.54-0.57
		s-0.58-0.2-1.05-0.2h-2V59.7z"/>
	<path class="st9" d="M258.51,59.7v0.88h-4.72v-8h1.03v7.12H258.51z"/>
	<path class="st9" d="M266.47,59.7v0.88h-5.17v-8h5.06v0.88h-4.06v2.54h3.22v0.81h-3.22v2.88H266.47z"/>
	<path class="st9" d="M268.62,58.47l0.9-0.21c0.36,1.09,1.15,1.63,2.36,1.63c0.63,0,1.11-0.13,1.43-0.4s0.48-0.63,0.48-1.08
		c0-0.34-0.12-0.62-0.37-0.82s-0.53-0.35-0.85-0.43l-1.6-0.39c-0.41-0.11-0.75-0.23-1.02-0.38s-0.49-0.38-0.67-0.7
		c-0.18-0.31-0.28-0.67-0.28-1.07c0-0.67,0.25-1.2,0.76-1.6s1.15-0.6,1.94-0.6c1.45,0,2.41,0.66,2.87,1.97l-0.91,0.27
		c-0.11-0.47-0.35-0.82-0.74-1.06s-0.81-0.36-1.25-0.36c-0.44,0-0.83,0.12-1.17,0.35S270,54.15,270,54.57c0,0.59,0.43,0.99,1.3,1.2
		l1.5,0.35c1.37,0.33,2.05,1.06,2.05,2.21c0,0.69-0.26,1.27-0.77,1.73s-1.24,0.69-2.17,0.69C270.24,60.75,269.15,59.99,268.62,58.47
		z"/>
</g>
</svg>
