<svg id="Capa_1" data-name="Capa 1" xmlns="http://www.w3.org/2000/svg" viewBox="0 0 50 50"><defs><style>.cls-1{fill:#ffdf9f;}</style></defs><title>RelojFavicon</title><path class="cls-1" d="M23.47.6h3.06c1,.13,2,.23,3,.41a24.42,24.42,0,0,1,19.69,27.2,23.67,23.67,0,0,1-9.34,16.12,23.72,23.72,0,0,1-18.09,4.85A23.4,23.4,0,0,1,9.61,43.9,24,24,0,0,1,1,29.25c-.17-.9-.26-1.81-.38-2.72V23.48c.07-.6.13-1.2.22-1.79A24.12,24.12,0,0,1,7.59,7.93,24,24,0,0,1,20.8,1C21.68.82,22.58.72,23.47.6ZM25,3.85A21.15,21.15,0,1,0,46.15,25,21.2,21.2,0,0,0,25,3.85Z"/><path class="cls-1" d="M23.38,18.5c0-2.16,0-4.32,0-6.48a1.62,1.62,0,1,1,3.24.07c0,2.42,0,4.83,0,7.25,0,1.47,0,2.95,0,4.43a.83.83,0,0,0,.37.75q3.54,2.81,7.07,5.65a1.63,1.63,0,1,1-2,2.53c-1.65-1.31-3.3-2.64-5-4l-3-2.38a1.8,1.8,0,0,1-.73-1.52Q23.39,21.66,23.38,18.5Z"/></svg>