<svg id="Capa_1" data-name="Capa 1" xmlns="http://www.w3.org/2000/svg" viewBox="0 0 80 80"><defs><style>.cls-1{fill:#ffdf9f;}</style></defs><title>VeganFavicon</title><path class="cls-1" d="M42.45,79.26h-4.9a5,5,0,0,0-.67-.14,37.14,37.14,0,0,1-21.82-8.86C3.19,60-1.41,47,1.72,31.65,6.34,8.88,30.61-4.73,52.61,2.86a39.58,39.58,0,0,1,13,7.43,1.64,1.64,0,0,0,1,.41c3,0,6,0,9,0a1.8,1.8,0,0,1,2,1.29c.25.85-.13,1.44-1,2.2-1.18,1-2.24,2.21-3.35,3.33-.46.46-.42.89,0,1.46a37.37,37.37,0,0,1,5.52,14.31c.24,1.46.4,2.92.6,4.39v4.75a3.12,3.12,0,0,0-.13.59,38.38,38.38,0,0,1-9.6,22.79A38.4,38.4,0,0,1,46.76,78.66C45.33,78.91,43.89,79.06,42.45,79.26ZM62.94,11.17C51.12,1.22,30.44-.89,15.27,12.58A36.92,36.92,0,1,0,71.42,20.7c-.31.73-.64,1.39-.86,2.09a1.63,1.63,0,0,0,.07,1.11,34.14,34.14,0,0,1,3.06,23.87A34.58,34.58,0,1,1,36.94,5.55c.87-.07,1.45.32,1.52,1S38,7.7,37.15,7.85c-1.86.31-3.75.53-5.56,1a32.27,32.27,0,1,0,38,18.23c-.1-.24-.23-.48-.37-.77-.61,1.34-1.19,2.59-1.75,3.85a12,12,0,0,1-7.53,6.74,44.11,44.11,0,0,1-6,1.33,2,2,0,0,0-1.83,1.54c-.88,3.17-1.79,6.33-2.69,9.49-.23.8-.79,1.17-1.46,1a1.14,1.14,0,0,1-.75-1.53C48.12,45.37,49,42,50.05,38.66A3.75,3.75,0,0,1,53.38,36a46.3,46.3,0,0,0,5.24-1.06,10,10,0,0,0,6.8-5.82q1.58-3.66,3-7.35c1.31-3.28,2.91-6.36,5.66-8.7,0,0,0-.09,0-.15A40.42,40.42,0,0,0,60,14.28C51.75,16.74,46.28,22,44.23,30.48a5,5,0,0,0-.1.66c.89-.81,1.66-1.55,2.47-2.24a20.73,20.73,0,0,1,9.46-4.79c1-.2,1.67.11,1.95.88s-.08,1.33-.93,1.87a20.86,20.86,0,0,0-2.43,1.72A30,30,0,0,0,47.18,39,71.8,71.8,0,0,0,42,55.47c-.23,1.1-.8,1.67-1.68,1.69s-1.47-.53-1.71-1.63A72.5,72.5,0,0,0,34,40.72a30.85,30.85,0,0,0-7.62-11c-.77-.66-1.62-1.23-2.31-1.76,1.24,2,2.66,4,3.77,6.19a71.18,71.18,0,0,1,5.21,15c1.37,5.28,2.58,10.6,3.86,15.91.26,1.09.55,1.33,1.69,1.34h3.06c1.47,0,1.67-.18,2-1.64.71-3.42,1.44-6.84,2.16-10.26.18-.82.73-1.25,1.38-1.12a1.17,1.17,0,0,1,.89,1.53c-.77,3.69-1.54,7.39-2.37,11.07a3.35,3.35,0,0,1-3.43,2.71q-2,0-4,0a3.43,3.43,0,0,1-3.54-2.86C33,58.68,31.19,51.5,29.27,44.36,27.5,37.77,24.93,31.59,19.55,27a1.54,1.54,0,0,1-.22-2,1.59,1.59,0,0,1,1.84-.76,17,17,0,0,1,2.3.82,20.68,20.68,0,0,1,7.64,6.24A45.64,45.64,0,0,1,38.6,46.38c.6,1.9,1.1,3.83,1.69,5.91,2.2-8.73,5-17,11-23.86a3.86,3.86,0,0,0-1,.54q-2.72,2.36-5.4,4.74a2,2,0,0,1-2.31.46,1.91,1.91,0,0,1-1-2.18c1.56-9,6.33-15.45,14.88-18.94l.77-.33-.78-.5a28.83,28.83,0,0,0-7.8-3.3c-1.92-.47-3.9-.75-5.86-1.08-.81-.13-1.3-.58-1.24-1.26s.61-1.08,1.44-1l.3,0a34.59,34.59,0,0,1,16.36,6,1.11,1.11,0,0,0,.68.24C61.2,11.61,62.06,11.38,62.94,11.17Z"/></svg>